<svg xmlns="http://www.w3.org/2000/svg" viewBox="0 0 800 1200" role="img" aria-label="Stylized red dragon illustration">
  <defs>
    <linearGradient id="bg" x1="0" x2="0" y1="0" y2="1">
      <stop offset="0%" stop-color="#51141a"/>
      <stop offset="100%" stop-color="#22090d"/>
    </linearGradient>
    <linearGradient id="wing" x1="0" x2="1" y1="0" y2="1">
      <stop offset="0%" stop-color="#f4bf72"/>
      <stop offset="100%" stop-color="#b76e2b"/>
    </linearGradient>
    <filter id="shadow" x="-20%" y="-20%" width="140%" height="140%">
      <feDropShadow dx="0" dy="8" stdDeviation="8" flood-color="#000" flood-opacity="0.35"/>
    </filter>
  </defs>
  <rect width="800" height="1200" fill="url(#bg)"/>
  <circle cx="690" cy="100" r="130" fill="#8f1d24" opacity="0.35"/>
  <circle cx="120" cy="1080" r="180" fill="#7a1821" opacity="0.25"/>
  <path d="M140 930C220 790 270 700 338 646C392 604 482 579 559 580C577 470 645 388 722 363C668 454 642 542 640 628C728 653 770 695 780 783C710 742 659 719 618 718C549 835 450 924 300 1013L140 930Z" fill="#f1b158" opacity="0.9" filter="url(#shadow)"/>
  <path d="M188 890C300 752 347 694 426 653C467 631 516 616 561 614C570 531 614 471 660 440C639 500 630 555 630 618C682 637 710 662 722 706C666 683 635 677 604 678C542 775 470 845 339 925L188 890Z" fill="#351012"/>
  <path d="M428 438L468 380L522 381L474 448Z" fill="#351012"/>
  <path d="M474 448L554 404L626 421L538 484Z" fill="#351012"/>
  <path d="M566 526L637 492L653 532L587 564Z" fill="#351012"/>
  <circle cx="548" cy="456" r="8" fill="#f6d48e"/>
  <circle cx="548" cy="456" r="4" fill="#280a0d"/>
  <path d="M245 1040C352 1080 469 1080 590 1040" stroke="#b8662a" stroke-width="14" stroke-linecap="round"/>
</svg>

