<svg xmlns="http://www.w3.org/2000/svg" viewBox="0 0 1600 700" role="img" aria-label="Stylized dungeon battle banner illustration">
  <defs>
    <linearGradient id="bg3" x1="0" x2="1" y1="0" y2="1">
      <stop offset="0%" stop-color="#6a1b22"/>
      <stop offset="50%" stop-color="#4a1219"/>
      <stop offset="100%" stop-color="#2b0a0f"/>
    </linearGradient>
    <radialGradient id="glow" cx="0.32" cy="0.4" r="0.6">
      <stop offset="0%" stop-color="#f5cb82" stop-opacity="0.55"/>
      <stop offset="100%" stop-color="#f5cb82" stop-opacity="0"/>
    </radialGradient>
  </defs>
  <rect width="1600" height="700" fill="url(#bg3)"/>
  <rect width="1600" height="700" fill="url(#glow)"/>
  <path d="M0 575L178 540L312 578L478 521L668 586L871 512L1066 575L1244 532L1407 570L1600 532V700H0Z" fill="#2a0b0f"/>
  <path d="M262 532L298 357L330 532Z" fill="#d4a15a"/>
  <circle cx="314" cy="332" r="36" fill="#d4a15a"/>
  <path d="M778 542L833 398L886 542Z" fill="#d4a15a"/>
  <circle cx="860" cy="376" r="32" fill="#d4a15a"/>
  <path d="M1116 540L1161 398L1208 540Z" fill="#d4a15a"/>
  <path d="M1024 560C1040 452 1107 379 1186 379C1270 379 1338 454 1352 560" stroke="#d4a15a" stroke-width="22" fill="none"/>
  <path d="M538 560C550 484 596 430 658 430C720 430 767 485 780 560" stroke="#d4a15a" stroke-width="18" fill="none"/>
  <circle cx="1333" cy="145" r="96" fill="#f2ca84" opacity="0.26"/>
  <circle cx="176" cy="122" r="76" fill="#f2ca84" opacity="0.2"/>
</svg>
